<?xml version="1.0" encoding="UTF-8" standalone="no"?>
<!DOCTYPE svg PUBLIC "-//W3C//DTD SVG 1.1//EN"
 "http://www.w3.org/Graphics/SVG/1.1/DTD/svg11.dtd">
<!-- Generated by graphviz version 2.47.3 (20210619.1520)
 -->
<!-- Title: dependencies Pages: 1 -->
<svg width="304pt" height="174pt"
 viewBox="0.00 0.00 304.00 173.80" xmlns="http://www.w3.org/2000/svg" xmlns:xlink="http://www.w3.org/1999/xlink">
<g id="graph0" class="graph" transform="scale(1 1) rotate(0) translate(4 169.8)">
<title>dependencies</title>
<polygon fill="white" stroke="transparent" points="-4,4 -4,-169.8 300,-169.8 300,4 -4,4"/>
<text text-anchor="middle" x="148" y="-8.2" font-family="sans-serif" font-size="14.00">dependencies</text>
<g id="clust1" class="cluster">
<title>cluster_PostModule</title>
<polygon fill="none" stroke="black" stroke-dasharray="1,5" points="8,-32.8 8,-157.8 288,-157.8 288,-32.8 8,-32.8"/>
</g>
<g id="clust3" class="cluster">
<title>cluster_PostModule_imports</title>
<polygon fill="none" stroke="black" points="154,-40.8 154,-92.8 280,-92.8 280,-40.8 154,-40.8"/>
</g>
<g id="clust6" class="cluster">
<title>cluster_PostModule_providers</title>
<polygon fill="none" stroke="black" points="16,-40.8 16,-92.8 146,-92.8 146,-40.8 16,-40.8"/>
</g>
<!-- DatabaseModule -->
<g id="node1" class="node">
<title>DatabaseModule</title>
<polygon fill="#8dd3c7" stroke="black" points="272.35,-84.8 269.35,-88.8 248.35,-88.8 245.35,-84.8 161.65,-84.8 161.65,-48.8 272.35,-48.8 272.35,-84.8"/>
<text text-anchor="middle" x="217" y="-62.6" font-family="Times,serif" font-size="14.00">DatabaseModule</text>
</g>
<!-- PostModule -->
<g id="node2" class="node">
<title>PostModule</title>
<polygon fill="#8dd3c7" stroke="black" points="190.67,-149.8 187.67,-153.8 166.67,-153.8 163.67,-149.8 107.33,-149.8 107.33,-113.8 190.67,-113.8 190.67,-149.8"/>
<text text-anchor="middle" x="149" y="-127.6" font-family="Times,serif" font-size="14.00">PostModule</text>
</g>
<!-- DatabaseModule&#45;&gt;PostModule -->
<g id="edge1" class="edge">
<title>DatabaseModule&#45;&gt;PostModule</title>
<path fill="none" stroke="black" d="M176.2,-84.91C176.2,-84.91 176.2,-103.79 176.2,-103.79"/>
<polygon fill="black" stroke="black" points="172.7,-103.79 176.2,-113.79 179.7,-103.79 172.7,-103.79"/>
</g>
<!-- PostService -->
<g id="node3" class="node">
<title>PostService</title>
<ellipse fill="#fdb462" stroke="black" cx="81" cy="-66.8" rx="56.76" ry="18"/>
<text text-anchor="middle" x="81" y="-62.6" font-family="Times,serif" font-size="14.00">PostService</text>
</g>
<!-- PostService&#45;&gt;PostModule -->
<g id="edge2" class="edge">
<title>PostService&#45;&gt;PostModule</title>
<path fill="none" stroke="black" d="M122.4,-79.33C122.4,-79.33 122.4,-103.65 122.4,-103.65"/>
<polygon fill="black" stroke="black" points="118.9,-103.65 122.4,-113.65 125.9,-103.65 118.9,-103.65"/>
</g>
</g>
</svg>
