<?xml version="1.0" encoding="UTF-8" standalone="no"?>
<!DOCTYPE svg PUBLIC "-//W3C//DTD SVG 1.1//EN"
 "http://www.w3.org/Graphics/SVG/1.1/DTD/svg11.dtd">
<!-- Generated by graphviz version 2.47.3 (20210619.1520)
 -->
<!-- Title: dependencies Pages: 1 -->
<svg width="406pt" height="174pt"
 viewBox="0.00 0.00 406.00 173.80" xmlns="http://www.w3.org/2000/svg" xmlns:xlink="http://www.w3.org/1999/xlink">
<g id="graph0" class="graph" transform="scale(1 1) rotate(0) translate(4 169.8)">
<title>dependencies</title>
<polygon fill="white" stroke="transparent" points="-4,4 -4,-169.8 402,-169.8 402,4 -4,4"/>
<text text-anchor="middle" x="199" y="-8.2" font-family="sans-serif" font-size="14.00">dependencies</text>
<g id="clust1" class="cluster">
<title>cluster_AppModule</title>
<polygon fill="none" stroke="black" stroke-dasharray="1,5" points="8,-32.8 8,-157.8 390,-157.8 390,-32.8 8,-32.8"/>
</g>
<g id="clust6" class="cluster">
<title>cluster_AppModule_providers</title>
<polygon fill="none" stroke="black" points="252,-40.8 252,-92.8 382,-92.8 382,-40.8 252,-40.8"/>
</g>
<g id="clust3" class="cluster">
<title>cluster_AppModule_imports</title>
<polygon fill="none" stroke="black" points="16,-40.8 16,-92.8 244,-92.8 244,-40.8 16,-40.8"/>
</g>
<!-- DatabaseModule -->
<g id="node1" class="node">
<title>DatabaseModule</title>
<polygon fill="#8dd3c7" stroke="black" points="236.35,-84.8 233.35,-88.8 212.35,-88.8 209.35,-84.8 125.65,-84.8 125.65,-48.8 236.35,-48.8 236.35,-84.8"/>
<text text-anchor="middle" x="181" y="-62.6" font-family="Times,serif" font-size="14.00">DatabaseModule</text>
</g>
<!-- AppModule -->
<g id="node3" class="node">
<title>AppModule</title>
<polygon fill="#8dd3c7" stroke="black" points="222.66,-149.8 219.66,-153.8 198.66,-153.8 195.66,-149.8 139.34,-149.8 139.34,-113.8 222.66,-113.8 222.66,-149.8"/>
<text text-anchor="middle" x="181" y="-127.6" font-family="Times,serif" font-size="14.00">AppModule</text>
</g>
<!-- DatabaseModule&#45;&gt;AppModule -->
<g id="edge1" class="edge">
<title>DatabaseModule&#45;&gt;AppModule</title>
<path fill="none" stroke="black" d="M181,-84.91C181,-84.91 181,-103.79 181,-103.79"/>
<polygon fill="black" stroke="black" points="177.5,-103.79 181,-113.79 184.5,-103.79 177.5,-103.79"/>
</g>
<!-- PostModule -->
<g id="node2" class="node">
<title>PostModule</title>
<polygon fill="#8dd3c7" stroke="black" points="107.67,-84.8 104.67,-88.8 83.67,-88.8 80.67,-84.8 24.33,-84.8 24.33,-48.8 107.67,-48.8 107.67,-84.8"/>
<text text-anchor="middle" x="66" y="-62.6" font-family="Times,serif" font-size="14.00">PostModule</text>
</g>
<!-- PostModule&#45;&gt;AppModule -->
<g id="edge2" class="edge">
<title>PostModule&#45;&gt;AppModule</title>
<path fill="none" stroke="black" d="M66,-84.91C66,-104.14 66,-131.8 66,-131.8 66,-131.8 129.16,-131.8 129.16,-131.8"/>
<polygon fill="black" stroke="black" points="129.16,-135.3 139.16,-131.8 129.16,-128.3 129.16,-135.3"/>
</g>
<!-- AppService -->
<g id="node4" class="node">
<title>AppService</title>
<ellipse fill="#fdb462" stroke="black" cx="317" cy="-66.8" rx="56.74" ry="18"/>
<text text-anchor="middle" x="317" y="-62.6" font-family="Times,serif" font-size="14.00">AppService</text>
</g>
<!-- AppService&#45;&gt;AppModule -->
<g id="edge3" class="edge">
<title>AppService&#45;&gt;AppModule</title>
<path fill="none" stroke="black" d="M317,-84.91C317,-104.14 317,-131.8 317,-131.8 317,-131.8 232.91,-131.8 232.91,-131.8"/>
<polygon fill="black" stroke="black" points="232.91,-128.3 222.91,-131.8 232.91,-135.3 232.91,-128.3"/>
</g>
</g>
</svg>
